<mxfile host="app.diagrams.net" modified="2022-03-17T00:37:18.744Z" agent="5.0 (Windows NT 10.0; Win64; x64) AppleWebKit/537.36 (KHTML, like Gecko) Chrome/99.0.4844.51 Safari/537.36" etag="SMFVyQkG-4TkA3rgWkwN" version="17.1.3" type="github">
  <diagram id="9K4c9n0JbCCM8tx41YKC" name="Page-1">
    <mxGraphModel dx="868" dy="482" grid="1" gridSize="10" guides="1" tooltips="1" connect="1" arrows="1" fold="1" page="1" pageScale="1" pageWidth="827" pageHeight="1169" math="0" shadow="0">
      <root>
        <mxCell id="0" />
        <mxCell id="1" parent="0" />
        <mxCell id="bQcjS5CROjnCH39BPfgD-7" style="edgeStyle=orthogonalEdgeStyle;rounded=0;orthogonalLoop=1;jettySize=auto;html=1;exitX=0.5;exitY=1;exitDx=0;exitDy=0;entryX=0.5;entryY=0;entryDx=0;entryDy=0;" edge="1" parent="1" source="bQcjS5CROjnCH39BPfgD-1" target="bQcjS5CROjnCH39BPfgD-3">
          <mxGeometry relative="1" as="geometry" />
        </mxCell>
        <mxCell id="bQcjS5CROjnCH39BPfgD-1" value="Inicio" style="ellipse;whiteSpace=wrap;html=1;" vertex="1" parent="1">
          <mxGeometry x="210" y="10" width="120" height="80" as="geometry" />
        </mxCell>
        <mxCell id="bQcjS5CROjnCH39BPfgD-2" value="Fim" style="rounded=1;whiteSpace=wrap;html=1;" vertex="1" parent="1">
          <mxGeometry x="630" y="290" width="120" height="60" as="geometry" />
        </mxCell>
        <mxCell id="bQcjS5CROjnCH39BPfgD-8" style="edgeStyle=orthogonalEdgeStyle;rounded=0;orthogonalLoop=1;jettySize=auto;html=1;entryX=0;entryY=0.5;entryDx=0;entryDy=0;" edge="1" parent="1" source="bQcjS5CROjnCH39BPfgD-3">
          <mxGeometry relative="1" as="geometry">
            <mxPoint x="400" y="170" as="targetPoint" />
          </mxGeometry>
        </mxCell>
        <mxCell id="bQcjS5CROjnCH39BPfgD-3" value="N1,N2;" style="shape=parallelogram;perimeter=parallelogramPerimeter;whiteSpace=wrap;html=1;fixedSize=1;" vertex="1" parent="1">
          <mxGeometry x="210" y="140" width="120" height="60" as="geometry" />
        </mxCell>
        <mxCell id="bQcjS5CROjnCH39BPfgD-10" style="edgeStyle=orthogonalEdgeStyle;rounded=0;orthogonalLoop=1;jettySize=auto;html=1;exitX=1;exitY=0.5;exitDx=0;exitDy=0;entryX=-0.008;entryY=0.363;entryDx=0;entryDy=0;entryPerimeter=0;" edge="1" parent="1" source="bQcjS5CROjnCH39BPfgD-5">
          <mxGeometry relative="1" as="geometry">
            <mxPoint x="579.04" y="169.03999999999996" as="targetPoint" />
          </mxGeometry>
        </mxCell>
        <mxCell id="bQcjS5CROjnCH39BPfgD-14" style="edgeStyle=orthogonalEdgeStyle;rounded=0;orthogonalLoop=1;jettySize=auto;html=1;exitX=0.5;exitY=1;exitDx=0;exitDy=0;entryX=0.358;entryY=0;entryDx=0;entryDy=0;entryPerimeter=0;" edge="1" parent="1" source="bQcjS5CROjnCH39BPfgD-5" target="bQcjS5CROjnCH39BPfgD-13">
          <mxGeometry relative="1" as="geometry" />
        </mxCell>
        <mxCell id="bQcjS5CROjnCH39BPfgD-5" value="&lt;span&gt;N1&amp;gt;N2;&lt;/span&gt;" style="rhombus;whiteSpace=wrap;html=1;" vertex="1" parent="1">
          <mxGeometry x="400" y="130" width="80" height="80" as="geometry" />
        </mxCell>
        <mxCell id="bQcjS5CROjnCH39BPfgD-15" style="edgeStyle=orthogonalEdgeStyle;rounded=0;orthogonalLoop=1;jettySize=auto;html=1;" edge="1" parent="1" source="bQcjS5CROjnCH39BPfgD-12" target="bQcjS5CROjnCH39BPfgD-2">
          <mxGeometry relative="1" as="geometry" />
        </mxCell>
        <mxCell id="bQcjS5CROjnCH39BPfgD-12" value="O maior é N1" style="shape=document;whiteSpace=wrap;html=1;boundedLbl=1;" vertex="1" parent="1">
          <mxGeometry x="580" y="140" width="120" height="80" as="geometry" />
        </mxCell>
        <mxCell id="bQcjS5CROjnCH39BPfgD-16" style="edgeStyle=orthogonalEdgeStyle;rounded=0;orthogonalLoop=1;jettySize=auto;html=1;entryX=0;entryY=0.5;entryDx=0;entryDy=0;" edge="1" parent="1" source="bQcjS5CROjnCH39BPfgD-13" target="bQcjS5CROjnCH39BPfgD-2">
          <mxGeometry relative="1" as="geometry" />
        </mxCell>
        <mxCell id="bQcjS5CROjnCH39BPfgD-13" value="O maior é N2" style="shape=document;whiteSpace=wrap;html=1;boundedLbl=1;" vertex="1" parent="1">
          <mxGeometry x="400" y="270" width="120" height="80" as="geometry" />
        </mxCell>
      </root>
    </mxGraphModel>
  </diagram>
</mxfile>
